<svg id="Layer_2" data-name="Layer 2" xmlns="http://www.w3.org/2000/svg" viewBox="0 0 972.16 245.87"><defs><style>.cls-1{fill:#313638}</style></defs><g id="Layer_1-2" data-name="Layer 1"><path class="cls-1" d="m141.62 225.74-19.77 19.95L0 143.96 121.86 42.23l19.77 20.13L42.8 143.6l98.83 82.14ZM830.72 62.54l19.58-20.13 121.86 101.73L850.3 245.87l-19.58-19.95 98.83-81.42-98.83-81.97ZM370.89 240.43c-7.13 1.81-14.51 3.11-22.12 3.9-7.62.79-15.35 1.18-23.21 1.18-22.85 0-39.89-5.17-51.14-15.51-11.24-10.34-16.87-26.2-16.87-47.6V87.38h-50.96V60.9h50.96V10.86L289.1 2.7v58.21h81.78v26.48H289.1v92.48c0 13.06 3.47 22.82 10.43 29.28 6.95 6.47 17.2 9.7 30.74 9.7 5.8 0 12.15-.45 19.04-1.36s14.08-2.33 21.58-4.26v27.2ZM591.95 235.48l-35.9-.09-44.31-120.52-9.54-29.4-10.05 30.08-44.54 119.57-34.64-.09 71.9-181.89 36.27.09 70.82 182.24ZM740.9 0c3.51 0 6.77.64 9.79 1.9 3.02 1.27 5.65 3.05 7.89 5.35 2.24 2.3 3.99 4.96 5.26 7.98 1.27 3.02 1.9 6.23 1.9 9.61s-.63 6.74-1.9 9.7a25.768 25.768 0 0 1-5.26 7.89c-2.24 2.3-4.87 4.08-7.89 5.35-3.02 1.27-6.29 1.9-9.79 1.9s-6.77-.64-9.79-1.9c-3.02-1.27-5.65-3.05-7.89-5.35a25.531 25.531 0 0 1-5.26-7.89c-1.27-2.96-1.9-6.19-1.9-9.7s.64-6.59 1.9-9.61c1.27-3.02 3.02-5.68 5.26-7.98 2.24-2.3 4.87-4.08 7.89-5.35C734.13.63 737.39 0 740.9 0ZM724.88 163.66c0 16.92-3.93 29.74-11.79 38.44-7.86 8.7-18.68 13.06-32.46 13.06-4.35 0-8.83-.27-13.42-.82-4.6-.54-9.16-1.36-13.69-2.45-4.53-1.09-8.95-2.42-13.24-3.99-4.29-1.57-8.31-3.33-12.06-5.26v30.1c6.89 2.9 14.6 5.17 23.12 6.8 8.52 1.63 17.25 2.45 26.2 2.45 12.33 0 23.42-1.75 33.27-5.26 9.85-3.51 18.16-8.64 24.93-15.41s11.97-15.08 15.59-24.93c3.63-9.85 5.44-21.13 5.44-33.82V65.61h-31.92v98.05Z"/></g></svg>